#!OML:ASF H:\ManfredETheater\Project 1\Capture day 1\Session 1\subject.ASF
:FULLY-SPECIFIED
:DEGREES
316
root 0.376447 15.9341 -35.0423 -154.373 -0.735817 -188.794
lowerback 16.4994 -2.5103 -5.22653
upperback -0.914589 -4.38957 0.603357
thorax -9.83626 -1.83473 4.69241
lowerneck -21.3116 -0.623635 -2.17785
upperneck 1.78186 0.328152 -0.496803
head 3.85989 0.341822 0.234736
rclavicle -1.11319e-014 -3.18055e-015
rhumerus -70.205 -0.360702 -80.0492
rradius 67.6371
rwrist -11.2283
rhand -32.1597 1.58179
rfingers 7.12502
rthumb -5.40297 -28.3293
lclavicle -1.11319e-014 -3.18055e-015
lhumerus -37.4255 -6.31929 93.0041
lradius 117.623
lwrist 9.80104
lhand -29.5053 -2.64421
lfingers 7.12502
lthumb -2.83967 27.3166
rfemur -77.3425 -14.4137 22.2529
rtibia 87.3849
rfoot -18.6158 -7.54537
rtoes -43.6352
lfemur -8.00818 -14.0674 -29.8501
ltibia 34.6565
lfoot -31.5512 -12.5921
ltoes 11.2322
317
root 0.38394 15.8973 -35.3244 -154.279 -0.889286 -188.528
lowerback 16.6958 -2.61811 -4.84324
upperback -0.874412 -4.44283 0.824833
thorax -9.90667 -1.87044 4.74261
lowerneck -21.2751 -0.544826 -2.19049
upperneck 1.51878 0.470134 -0.698452
head 3.77184 0.411691 0.186462
rclavicle 3.12092e-014 -3.65764e-014
rhumerus -72.3828 0.329115 -80.3419
rradius 70.3709
rwrist -11.5983
rhand -32.0926 2.60895
rfingers 7.12502
rthumb -5.33815 -27.3038
lclavicle 3.12092e-014 -3.65764e-014
lhumerus -36.9935 -6.77527 92.7837
lradius 120.579
lwrist 9.37344
lhand -29.9996 -3.68828
lfingers 7.12502
lthumb -3.31704 26.2657
rfemur -78.0869 -14.0437 22.8939
rtibia 86.7069
rfoot -18.529 -7.14726
rtoes -44.54
lfemur -6.30688 -14.0083 -29.6488
ltibia 33.1085
lfoot -30.6067 -12.6864
ltoes 10.376
318
root 0.391727 15.8649 -35.6151 -154.2 -1.02248 -188.251
lowerback 16.8754 -2.73389 -4.45186
upperback -0.833749 -4.50372 1.04839
thorax -9.96695 -1.91132 4.79167
lowerneck -21.2169 -0.43297 -2.18345
upperneck 1.25151 0.650275 -0.924385
head 3.67971 0.49948 0.130689
rclavicle 1.31198e-014 -1.74931e-014
rhumerus -74.3748 0.969797 -80.6768
rradius 72.9131
rwrist -11.9809
rhand -31.9454 3.53452
rfingers 7.12502
rthumb -5.196 -26.3818
lclavicle 1.31198e-014 -1.74931e-014
lhumerus -36.7447 -7.29934 92.4909
lradius 123.334
lwrist 8.75822
lhand -30.5709 -4.68267
lfingers 7.12502
lthumb -3.86881 25.262
rfemur -78.5588 -13.6806 23.4977
rtibia 86.054
rfoot -18.337 -6.69926
rtoes -45.3672
lfemur -4.66418 -13.9141 -29.4527
ltibia 31.7106
lfoot -29.3212 -12.801
ltoes 9.1103
319
root 0.400158 15.8313 -35.9115 -154.112 -1.13737 -187.973
lowerback 17.0264 -2.85126 -4.06473
upperback -0.796817 -4.56609 1.27173
thorax -10.0152 -1.95372 4.84185
lowerneck -21.1479 -0.303387 -2.17212
upperneck 0.976275 0.852438 -1.16141
head 3.58414 0.598487 0.0724849
rclavicle 5.64548e-014 -1.59028e-015
rhumerus -76.1335 1.51835 -81.0188
rradius 75.2053
rwrist -12.3045
rhand -31.7583 4.3794
rfingers 7.12502
rthumb -5.01538 -25.5412
lclavicle 5.64548e-014 -1.59028e-015
lhumerus -36.6943 -7.90361 92.1492
lradius 125.832
lwrist 7.96603
lhand -31.1372 -5.60687
lfingers 7.12502
lthumb -4.41566 24.3271
rfemur -78.8122 -13.3299 24.0704
rtibia 85.4742
rfoot -18.0187 -6.2084
rtoes -45.9022
lfemur -3.17955 -13.7731 -29.2541
ltibia 30.5868
lfoot -27.6644 -12.9684
ltoes 7.36625
320
root 0.4098 15.8108 -36.218 -154.013 -1.22738 -187.71
lowerback 17.1521 -2.9625 -3.7005
upperback -0.757842 -4.62517 1.4859
thorax -10.0466 -1.99504 4.8926
lowerneck -21.0806 -0.169221 -2.16173
upperneck 0.684315 1.06134 -1.39667
head 3.48429 0.702718 0.0153167
rclavicle -2.62396e-014 4.77083e-015
rhumerus -77.6012 1.93427 -81.3374
rradius 77.2066
rwrist -12.4974
rhand -31.5508 5.1475
rfingers 7.12502
rthumb -4.81502 -24.7778
lclavicle -2.62396e-014 4.77083e-015
lhumerus -36.8402 -8.60682 91.7867
lradius 128.011
lwrist 7.05304
lhand -31.6241 -6.39188
lfingers 7.12502
lthumb -4.8858 23.5318
rfemur -78.7257 -13.0198 24.6107
rtibia 84.926
rfoot -17.6181 -5.73893
rtoes -46.044
lfemur -1.90444 -13.5735 -29.0549
ltibia 29.7944
lfoot -25.5756 -13.2211
ltoes 5.09828
321
root 0.420685 15.7973 -36.5321 -153.886 -1.28573 -187.499
lowerback 17.2443 -3.05946 -3.38923
upperback -0.720957 -4.67746 1.67638
thorax -10.0603 -2.03215 4.9435
lowerneck -21.0221 -0.0493254 -2.16923
upperneck 0.371497 1.25594 -1.60993
head 3.37966 0.803341 -0.0336435
rclavicle 2.78299e-015 -6.36111e-015
rhumerus -78.7389 2.17795 -81.6052
rradius 78.8928
rwrist -12.5345
rhand -31.348 5.85474
rfingers 7.12502
rthumb -4.61918 -24.0749
lclavicle 2.78299e-015 -6.36111e-015
lhumerus -37.1794 -9.42206 91.4425
lradius 129.803
lwrist 6.07778
lhand -31.9461 -6.96655
lfingers 7.12502
lthumb -5.19664 22.9497
rfemur -78.3629 -12.7641 25.0898
rtibia 84.4689
rfoot -17.1378 -5.45561
rtoes -45.777
lfemur -0.91621 -13.3292 -28.8809
ltibia 29.4074
lfoot -22.9803 -13.5988
ltoes 2.47189
322
root 0.433137 15.7905 -36.8533 -153.737 -1.29749 -187.368
lowerback 17.3169 -3.12992 -3.16282
upperback -0.683762 -4.71511 1.83077
thorax -10.0608 -2.05966 4.99789
lowerneck -20.9797 0.043706 -2.20166
upperneck 0.038065 1.4222 -1.79744
head 3.27116 0.893887 -0.07328
rclavicle 1.07344e-014 3.18055e-015
rhumerus -79.5075 2.22056 -81.7975
rradius 80.2512
rwrist -12.4478
rhand -31.1526 6.49603
rfingers 7.12502
rthumb -4.43045 -23.4376
lclavicle 1.07344e-014 3.18055e-015
lhumerus -37.7018 -10.3502 91.163
lradius 131.13
lwrist 5.12949
lhand -32.0178 -7.30077
lfingers 7.12502
lthumb -5.26593 22.6138
rfemur -77.7077 -12.5609 25.4706
rtibia 84.0982
rfoot -16.6812 -5.45772
rtoes -45.1356
lfemur -0.230141 -13.0582 -28.7608
ltibia 29.4135
lfoot -19.7487 -14.1154
ltoes -0.298015
323
root 0.446368 15.7894 -37.1806 -153.568 -1.24851 -187.345
lowerback 17.388 -3.16822 -3.0415
upperback -0.651703 -4.73613 1.93515
thorax -10.0639 -2.07483 5.05314
lowerneck -20.6538 0.125673 -2.1798
upperneck -0.827413 1.54798 -2.01897
head 3.37846 0.974557 -0.125148
rclavicle 6.75868e-014 -1.27222e-014
rhumerus -79.8915 2.06254 -81.9121
rradius 81.2881
rwrist -12.3138
rhand -30.9784 7.04536
rfingers 7.12502
rthumb -4.26231 -22.8917
lclavicle 6.75868e-014 -1.27222e-014
lhumerus -38.398 -11.3679 90.9903
lradius 131.916
lwrist 4.28511
lhand -31.7852 -7.36228
lfingers 7.12502
lthumb -5.04132 22.5578
rfemur -76.76 -12.4151 25.7064
rtibia 83.8015
rfoot -16.4312 -5.78375
rtoes -44.2475
lfemur 0.104874 -12.8055 -28.7376
ltibia 29.8616
lfoot -15.7976 -14.7399
ltoes -2.75836
324
root 0.460257 15.7926 -37.513 -153.381 -1.12935 -187.422
lowerback 17.461 -3.16794 -3.0245
upperback -0.630017 -4.73125 1.9908
thorax -10.0783 -2.07255 5.10847
lowerneck -20.6235 0.148767 -2.27243
upperneck -1.17822 1.63589 -2.14583
head 3.24658 1.03439 -0.143909
rclavicle 4.17448e-014 1.74931e-014
rhumerus -79.8839 1.71628 -81.9543
rradius 82.0181
rwrist -12.255
rhand -30.8067 7.44591
rfingers 7.12502
rthumb -4.0965 -22.4945
lclavicle 4.17448e-014 1.74931e-014
lhumerus -39.2537 -12.4349 90.9624
lradius 132.093
lwrist 3.62247
lhand -31.2133 -7.15025
lfingers 7.12502
lthumb -4.48908 22.7822
rfemur -75.533 -12.2952 25.782
rtibia 83.5266
rfoot -16.4915 -6.51047
rtoes -43.4384
lfemur 0.0676529 -12.5929 -28.8098
ltibia 30.7503
lfoot -11.1352 -15.3858
ltoes -4.47576
325
root 0.474618 15.7986 -37.8484 -153.171 -0.945832 -187.576
lowerback 17.5398 -3.13151 -3.09865
upperback -0.622035 -4.70022 2.00613
thorax -10.1101 -2.05269 5.16603
lowerneck -20.5827 0.139922 -2.39137
upperneck -1.54047 1.68648 -2.24414
head 3.10869 1.07886 -0.15201
rclavicle 1.74931e-014 -1.90833e-014
rhumerus -79.4749 1.21422 -81.947
rradius 82.4562
rwrist -12.3888
rhand -30.5864 7.59197
rfingers 7.12502
rthumb -3.88376 -22.3524
lclavicle 1.74931e-014 -1.90833e-014
lhumerus -40.2384 -13.4695 91.0971
lradius 131.609
lwrist 3.18652
lhand -30.3035 -6.7147
lfingers 7.12502
lthumb -3.61059 23.2345
rfemur -74.0609 -12.1748 25.7074
rtibia 83.2091
rfoot -16.8987 -7.62757
rtoes -42.8733
lfemur -0.346993 -12.4515 -28.9594
ltibia 32.0622
lfoot -5.96529 -15.9232
ltoes -5.16906
326
root 0.488886 15.8065 -38.1862 -152.946 -0.71179 -187.765
lowerback 17.6184 -3.0599 -3.21941
upperback -0.622091 -4.63446 1.99138
thorax -10.1536 -2.01372 5.20887
lowerneck -20.5393 0.11234 -2.51769
upperneck -1.89121 1.7126 -2.32796
head 2.97483 1.11233 -0.156274
rclavicle -4.25399e-014 2.42517e-014
rhumerus -78.667 0.583562 -81.911
rradius 82.6272
rwrist -12.7936
rhand -30.305 7.44752
rfingers 7.12502
rthumb -3.61196 -22.5016
lclavicle -4.25399e-014 2.42517e-014
lhumerus -41.3103 -14.4047 91.4035
lradius 130.44
lwrist 3.02006
lhand -29.0976 -6.09652
lfingers 7.12502
lthumb -2.44593 23.8692
rfemur -72.378 -12.0286 25.505
rtibia 82.801
rfoot -17.6559 -9.04331
rtoes -42.661
lfemur -1.1381 -12.3862 -29.1503
ltibia 33.8296
lfoot -0.553675 -16.3217
ltoes -3.88928
327
root 0.503326 15.8215 -38.528 -152.71 -0.44599 -187.939
lowerback 17.6902 -2.9598 -3.34324
upperback -0.625524 -4.53258 1.96234
thorax -10.202 -1.95737 5.22839
lowerneck -20.4823 0.0716725 -2.64021
upperneck -2.23722 1.71879 -2.40491
head 2.84066 1.13674 -0.160886
rclavicle -4.6118e-014 1.98785e-014
rhumerus -77.4606 -0.1406 -81.8733
rradius 82.5529
rwrist -13.4623
rhand -29.9623 6.99123
rfingers 7.12502
rthumb -3.28102 -22.9633
lclavicle -4.6118e-014 1.98785e-014
lhumerus -42.4175 -15.1535 91.8581
lradius 128.591
lwrist 3.10949
lhand -27.6617 -5.37831
lfingers 7.12502
lthumb -1.05914 24.5988
rfemur -70.4926 -11.8293 25.2195
rtibia 82.2281
rfoot -18.682 -10.6989
rtoes -42.8559
lfemur -2.29101 -12.3716 -29.3211
ltibia 36.0479
lfoot 4.61295 -16.5095
ltoes -0.541105
328
root 0.516986 15.8342 -38.8697 -152.481 -0.17956 -188.033
lowerback 17.7619 -2.83976 -3.40219
upperback -0.618845 -4.39099 1.9371
thorax -10.2482 -1.88605 5.20477
lowerneck -20.4035 0.0230275 -2.74128
upperneck -2.59129 1.70775 -2.47954
head 2.70038 1.15367 -0.170307
rclavicle 1.98785e-014 -1.51076e-014
rhumerus -75.8628 -0.920348 -81.8663
rradius 82.2641
rwrist -14.3104
rhand -29.5865 6.20584
rfingers 7.12502
rthumb -2.91812 -23.7539
lclavicle 1.98785e-014 -1.51076e-014
lhumerus -43.5015 -15.6504 92.4272
lradius 126.101
lwrist 3.43072
lhand -26.1335 -4.6346
lfingers 7.12502
lthumb 0.416774 25.3447
rfemur -68.5135 -11.5451 24.9225
rtibia 81.5241
rfoot -19.8334 -12.4778
rtoes -43.4332
lfemur -3.7616 -12.3514 -29.4009
ltibia 38.7316
lfoot 8.89591 -16.413
ltoes 3.93198
